<?xml version="1.0" encoding="UTF-8"?>
<svg xmlns="http://www.w3.org/2000/svg" xmlns:xlink="http://www.w3.org/1999/xlink" viewBox="0 0 100 100" width="100px" height="100px">
<g id="surface56985987">
<path style=" stroke:none;fill-rule:nonzero;fill:rgb(57.647061%,40.000001%,22.352941%);fill-opacity:1;" d="M 22 70.21875 C 22 77 22 83 18 87 C 24.710938 87 33 85 38.179688 77.625 C 41.914062 78.519531 45.886719 79 50 79 C 72.089844 79 90 65.121094 90 48 C 90 30.878906 72.089844 17 50 17 C 27.910156 17 10 30.878906 10 48 C 10 56.671875 14.59375 64.515625 22 70.140625 Z M 22 70.21875 "/>
<path style=" stroke:none;fill-rule:nonzero;fill:rgb(64.313728%,67.450982%,52.549022%);fill-opacity:1;" d="M 49.5 28.5 C 46.738281 28.5 44.5 30.515625 44.5 33 C 44.5 35.484375 46.738281 37.5 49.5 37.5 C 52.261719 37.5 54.5 35.484375 54.5 33 C 54.5 30.515625 52.261719 28.5 49.5 28.5 Z M 42.5 40.5 L 54.5 40.5 L 54.5 60.5 C 54.5 61.050781 54.949219 61.5 55.5 61.5 L 59.5 61.5 L 59.5 65.5 L 41.5 65.5 L 41.5 61.5 L 45.5 61.5 C 46.050781 61.5 46.5 61.050781 46.5 60.5 L 46.5 45.5 C 46.5 44.949219 46.050781 44.5 45.5 44.5 L 42.5 44.5 Z M 42.5 40.5 "/>
<path style=" stroke:none;fill-rule:nonzero;fill:rgb(12.156863%,12.941177%,16.862746%);fill-opacity:1;" d="M 18 88 C 17.597656 88 17.230469 87.757812 17.074219 87.382812 C 16.921875 87.007812 17.007812 86.578125 17.292969 86.292969 C 20.921875 82.664062 21 77.09375 21 70.632812 C 13.257812 64.59375 9 56.574219 9 48 C 9 30.355469 27.394531 16 50 16 C 72.605469 16 91 30.355469 91 48 C 91 65.644531 72.605469 80 50 80 C 46.121094 80 42.289062 79.578125 38.601562 78.746094 C 32.585938 86.78125 23.15625 88 18 88 Z M 50 18 C 28.496094 18 11 31.457031 11 48 C 11 56.078125 15.121094 63.660156 22.605469 69.34375 C 22.855469 69.535156 23 69.828125 23 70.140625 L 23 70.21875 C 23 76.117188 23 81.738281 20.175781 85.925781 C 25.242188 85.566406 32.628906 83.789062 37.359375 77.050781 C 37.597656 76.714844 38.011719 76.558594 38.410156 76.652344 C 42.148438 77.546875 46.046875 78 50 78 C 71.503906 78 89 64.542969 89 48 C 89 31.457031 71.503906 18 50 18 Z M 50 18 "/>
<path style=" stroke:none;fill-rule:nonzero;fill:rgb(12.156863%,12.941177%,16.862746%);fill-opacity:1;" d="M 20.296875 63 C 20.160156 63 20.019531 62.941406 19.921875 62.828125 C 16.046875 58.421875 14 53.292969 14 48 C 14 33.113281 30.148438 21 50 21 C 59.378906 21 68.261719 23.695312 75.015625 28.59375 C 75.238281 28.757812 75.289062 29.070312 75.128906 29.292969 C 74.964844 29.515625 74.652344 29.566406 74.429688 29.402344 C 67.84375 24.628906 59.167969 22 50 22 C 30.699219 22 15 33.664062 15 48 C 15 53.046875 16.960938 57.949219 20.675781 62.171875 C 20.855469 62.378906 20.835938 62.691406 20.628906 62.875 C 20.535156 62.960938 20.414062 63 20.296875 63 Z M 50 75 C 48.820312 75 47.632812 74.957031 46.464844 74.871094 C 46.1875 74.851562 45.980469 74.609375 46 74.335938 C 46.019531 74.0625 46.257812 73.851562 46.535156 73.875 C 47.683594 73.957031 48.847656 74 50 74 C 69.300781 74 85 62.335938 85 48 C 85 43.554688 83.453125 39.164062 80.527344 35.300781 C 80.359375 35.082031 80.402344 34.769531 80.625 34.601562 C 80.84375 34.433594 81.15625 34.476562 81.324219 34.699219 C 84.382812 38.734375 86 43.335938 86 48 C 86 62.886719 69.851562 75 50 75 Z M 79.699219 34 C 79.5625 34 79.425781 33.941406 79.324219 33.828125 C 79.03125 33.496094 78.730469 33.167969 78.417969 32.847656 C 78.226562 32.648438 78.230469 32.332031 78.429688 32.140625 C 78.628906 31.949219 78.949219 31.953125 79.136719 32.152344 C 79.460938 32.484375 79.773438 32.824219 80.078125 33.171875 C 80.257812 33.378906 80.238281 33.691406 80.03125 33.875 C 79.9375 33.960938 79.816406 34 79.699219 34 Z M 77.210938 31.5 C 77.09375 31.5 76.976562 31.457031 76.878906 31.371094 C 76.648438 31.167969 76.414062 30.96875 76.179688 30.769531 C 75.96875 30.59375 75.941406 30.277344 76.117188 30.0625 C 76.292969 29.851562 76.609375 29.824219 76.820312 30.003906 C 77.066406 30.207031 77.308594 30.414062 77.546875 30.628906 C 77.75 30.8125 77.769531 31.128906 77.585938 31.332031 C 77.484375 31.441406 77.351562 31.5 77.210938 31.5 Z M 77.210938 31.5 "/>
<path style=" stroke:none;fill-rule:nonzero;fill:rgb(12.156863%,12.941177%,16.862746%);fill-opacity:1;" d="M 49.5 38 C 46.46875 38 44 35.757812 44 33 C 44 30.242188 46.46875 28 49.5 28 C 52.53125 28 55 30.242188 55 33 C 55 35.757812 52.53125 38 49.5 38 Z M 49.5 29 C 47.019531 29 45 30.792969 45 33 C 45 35.207031 47.019531 37 49.5 37 C 51.980469 37 54 35.207031 54 33 C 54 30.792969 51.980469 29 49.5 29 Z M 49.5 29 "/>
<path style=" stroke:none;fill-rule:nonzero;fill:rgb(12.156863%,12.941177%,16.862746%);fill-opacity:1;" d="M 59.5 66 L 41.5 66 C 41.222656 66 41 65.777344 41 65.5 L 41 61.5 C 41 61.222656 41.222656 61 41.5 61 L 45.5 61 C 45.777344 61 46 60.777344 46 60.5 L 46 45.5 C 46 45.222656 45.777344 45 45.5 45 L 42.5 45 C 42.222656 45 42 44.777344 42 44.5 L 42 40.5 C 42 40.222656 42.222656 40 42.5 40 L 54.5 40 C 54.777344 40 55 40.222656 55 40.5 L 55 60.5 C 55 60.777344 55.226562 61 55.5 61 L 59.5 61 C 59.777344 61 60 61.222656 60 61.5 L 60 65.5 C 60 65.777344 59.777344 66 59.5 66 Z M 42 65 L 59 65 L 59 62 L 55.5 62 C 54.671875 62 54 61.328125 54 60.5 L 54 41 L 43 41 L 43 44 L 45.5 44 C 46.328125 44 47 44.671875 47 45.5 L 47 60.5 C 47 61.328125 46.328125 62 45.5 62 L 42 62 Z M 42 65 "/>
</g>
</svg>
